<?xml version="1.0" encoding="UTF-8" standalone="no"?>
<svg xmlns="http://www.w3.org/2000/svg"
xmlns:xlink="http://www.w3.org/1999/xlink">
  <script type="text/ecmascript">
    <![CDATA[

      // set element onclick event handler
      window.onload=function() {

         var square = document.getElementById("XMLID_2");

         // onclick event handler, change circle radius
         square.onclick = function() {
            var color = this.getAttribute("fill");
            if (color == "black") {
               this.setAttribute("fill", "blue");
            } else if (color == "blue") {
               this.setAttribute("fill","red");
            } else {
                this.setAttribute("fill","black");
            }
         }
      }
    ]]>
  </script>
<style type="text/css">
	.st0{fill:#FFFFFF;stroke:#000000;stroke-miterlimit:10;}
</style>

<rect id="XMLID_1" x="873" y="9" class="st0" width="234" height="94"/>
<rect id="XMLID_2" x="163" y="120" width="115" height="115" fill="black"/>
<rect id="XMLID_3" x="163" y="241.5" class="st0" width="115" height="115" fill="black"/>
<rect id="XMLID_4" x="163" y="362.5" class="st0" width="115" height="115"/>
<rect id="XMLID_5_" x="163" y="483.5" class="st0" width="115" height="115"/>
<rect id="XMLID_6_" x="163" y="605" class="st0" width="115" height="115"/>
<rect id="XMLID_21_" x="284" y="120" class="st0" width="115" height="115"/>
<rect id="XMLID_20_" x="284" y="241.5" class="st0" width="115" height="115"/>
<rect id="XMLID_19_" x="284" y="362.5" class="st0" width="115" height="115"/>
<rect id="XMLID_18_" x="284" y="483.5" class="st0" width="115" height="115"/>
<rect id="XMLID_17_" x="284" y="605" class="st0" width="115" height="115"/>
<rect id="XMLID_36_" x="403" y="120" class="st0" width="115" height="115"/>
<rect id="XMLID_35_" x="403" y="241.5" class="st0" width="115" height="115"/>
<rect id="XMLID_34_" x="403" y="362.5" class="st0" width="115" height="115"/>
<rect id="XMLID_33_" x="403" y="483.5" class="st0" width="115" height="115"/>
<rect id="XMLID_32_" x="403" y="605" class="st0" width="115" height="115"/>
<rect id="XMLID_31_" x="522" y="120" class="st0" width="115" height="115"/>
<rect id="XMLID_30_" x="522" y="241.5" class="st0" width="115" height="115"/>
<rect id="XMLID_29_" x="522" y="362.5" class="st0" width="115" height="115"/>
<rect id="XMLID_28_" x="522" y="483.5" class="st0" width="115" height="115"/>
<rect id="XMLID_27_" x="522" y="605" class="st0" width="115" height="115"/>
<rect id="XMLID_41_" x="640" y="120" class="st0" width="115" height="115"/>
<rect id="XMLID_40_" x="640" y="241.5" class="st0" width="115" height="115"/>
<rect id="XMLID_39_" x="640" y="362.5" class="st0" width="115" height="115"/>
<rect id="XMLID_38_" x="640" y="483.5" class="st0" width="115" height="115"/>
<rect id="XMLID_37_" x="640" y="605" class="st0" width="115" height="115"/>
<rect id="XMLID_51_" x="1226" y="120" class="st0" width="115" height="115"/>
<rect id="XMLID_50_" x="1226" y="241.5" class="st0" width="115" height="115"/>
<rect id="XMLID_49_" x="1226" y="362.5" class="st0" width="115" height="115"/>
<rect id="XMLID_48_" x="1226" y="483.5" class="st0" width="115" height="115"/>
<rect id="XMLID_47_" x="1226" y="605" class="st0" width="115" height="115"/>
<rect id="XMLID_46_" x="1347" y="120" class="st0" width="115" height="115"/>
<rect id="XMLID_45_" x="1347" y="241.5" class="st0" width="115" height="115"/>
<rect id="XMLID_44_" x="1347" y="362.5" class="st0" width="115" height="115"/>
<rect id="XMLID_43_" x="1347" y="483.5" class="st0" width="115" height="115"/>
<rect id="XMLID_42_" x="1347" y="605" class="st0" width="115" height="115"/>
<rect id="XMLID_26_" x="1466" y="120" class="st0" width="115" height="115"/>
<rect id="XMLID_25_" x="1466" y="241.5" class="st0" width="115" height="115"/>
<rect id="XMLID_24_" x="1466" y="362.5" class="st0" width="115" height="115"/>
<rect id="XMLID_23_" x="1466" y="483.5" class="st0" width="115" height="115"/>
<rect id="XMLID_22_" x="1466" y="605" class="st0" width="115" height="115"/>
<rect id="XMLID_16_" x="1585" y="120" class="st0" width="115" height="115"/>
<rect id="XMLID_15_" x="1585" y="241.5" class="st0" width="115" height="115"/>
<rect id="XMLID_14_" x="1585" y="362.5" class="st0" width="115" height="115"/>
<rect id="XMLID_13_" x="1585" y="483.5" class="st0" width="115" height="115"/>
<rect id="XMLID_12_" x="1585" y="605" class="st0" width="115" height="115"/>
<rect id="XMLID_11_" x="1703" y="120" class="st0" width="115" height="115"/>
<rect id="XMLID_10_" x="1703" y="241.5" class="st0" width="115" height="115"/>
<rect id="XMLID_9_" x="1703" y="362.5" class="st0" width="115" height="115"/>
<rect id="XMLID_8_" x="1703" y="483.5" class="st0" width="115" height="115"/>
<rect id="XMLID_7_" x="1703" y="605" class="st0" width="115" height="115"/>
</svg>
