<?xml version="1.0" encoding="UTF-8" standalone="no"?>
<svg xmlns="http://www.w3.org/2000/svg"
xmlns:xlink="http://www.w3.org/1999/xlink">
  
<style type="text/css">
	.st0{fill:#FFFFFF;stroke:#000000;stroke-miterlimit:10;}
</style>

<rect id="XMLID_1" x="873" y="9" class="st0" width="234" height="94"/>
<rect id="XMLID_2" x="163" y="120" width="115" height="115" fill="greenyellow"/>
<rect id="XMLID_3" x="163" y="241.5" width="115" height="115" fill="greenyellow"/>
<rect id="XMLID_4" x="163" y="362.5" width="115" height="115" fill="greenyellow"/>
<rect id="XMLID_5" x="163" y="483.5" width="115" height="115" fill="greenyellow"/>
<rect id="XMLID_6" x="163" y="605" width="115" height="115" fill="greenyellow"/>
<rect id="XMLID_21" x="284" y="120" width="115" height="115" fill="greenyellow"/>
<rect id="XMLID_20" x="284" y="241.5" width="115" height="115" fill="greenyellow"/>
<rect id="XMLID_19" x="284" y="362.5" width="115" height="115" fill="greenyellow"/>
<rect id="XMLID_18" x="284" y="483.5" width="115" height="115" fill="greenyellow"/>
<rect id="XMLID_17" x="284" y="605" width="115" height="115" fill="greenyellow"/>
<rect id="XMLID_36" x="403" y="120" width="115" height="115" fill="greenyellow"/>
<rect id="XMLID_35" x="403" y="241.5" width="115" height="115" fill="greenyellow"/>
<rect id="XMLID_34" x="403" y="362.5" width="115" height="115" fill="greenyellow"/>
<rect id="XMLID_33" x="403" y="483.5" width="115" height="115" fill="greenyellow"/>
<rect id="XMLID_32" x="403" y="605" width="115" height="115" fill="greenyellow"/>
<rect id="XMLID_31" x="522" y="120" width="115" height="115" fill="greenyellow"/>
<rect id="XMLID_30" x="522" y="241.5" width="115" height="115" fill="greenyellow"/>
<rect id="XMLID_29" x="522" y="362.5" width="115" height="115" fill="greenyellow"/>
<rect id="XMLID_28" x="522" y="483.5" width="115" height="115" fill="greenyellow"/>
<rect id="XMLID_27" x="522" y="605" width="115" height="115" fill="greenyellow"/>
<rect id="XMLID_41" x="640" y="120" width="115" height="115" fill="greenyellow"/>
<rect id="XMLID_40" x="640" y="241.5" width="115" height="115" fill="greenyellow"/>
<rect id="XMLID_39" x="640" y="362.5" width="115" height="115" fill="greenyellow"/>
<rect id="XMLID_38" x="640" y="483.5" width="115" height="115" fill="greenyellow"/>
<rect id="XMLID_37" x="640" y="605" width="115" height="115" fill="greenyellow"/>
<rect id="XMLID_51" x="1226" y="120" width="115" height="115" fill="greenyellow"/>
<rect id="XMLID_50" x="1226" y="241.5" width="115" height="115" fill="greenyellow"/>
<rect id="XMLID_49" x="1226" y="362.5" width="115" height="115" fill="greenyellow"/>
<rect id="XMLID_48" x="1226" y="483.5" width="115" height="115" fill="greenyellow"/>
<rect id="XMLID_47" x="1226" y="605" width="115" height="115" fill="greenyellow"/>
<rect id="XMLID_46" x="1347" y="120" width="115" height="115" fill="greenyellow"/>
<rect id="XMLID_45" x="1347" y="241.5" width="115" height="115" fill="greenyellow"/>
<rect id="XMLID_44" x="1347" y="362.5" width="115" height="115" fill="greenyellow"/>
<rect id="XMLID_43" x="1347" y="483.5" width="115" height="115" fill="greenyellow"/>
<rect id="XMLID_42" x="1347" y="605" width="115" height="115" fill="greenyellow"/>
<rect id="XMLID_26" x="1466" y="120" width="115" height="115" fill="greenyellow"/>
<rect id="XMLID_25" x="1466" y="241.5" width="115" height="115" fill="greenyellow"/>
<rect id="XMLID_24" x="1466" y="362.5" width="115" height="115" fill="greenyellow"/>
<rect id="XMLID_23" x="1466" y="483.5" width="115" height="115" fill="greenyellow"/>
<rect id="XMLID_22" x="1466" y="605" width="115" height="115" fill="greenyellow"/>
<rect id="XMLID_16" x="1585" y="120" width="115" height="115" fill="greenyellow"/>
<rect id="XMLID_15" x="1585" y="241.5" width="115" height="115" fill="greenyellow"/>
<rect id="XMLID_14" x="1585" y="362.5" width="115" height="115" fill="greenyellow"/>
<rect id="XMLID_13" x="1585" y="483.5" width="115" height="115" fill="greenyellow"/>
<rect id="XMLID_12" x="1585" y="605" width="115" height="115" fill="greenyellow"/>
<rect id="XMLID_11" x="1703" y="120" width="115" height="115" fill="greenyellow"/>
<rect id="XMLID_10" x="1703" y="241.5" width="115" height="115" fill="greenyellow"/>
<rect id="XMLID_9" x="1703" y="362.5" width="115" height="115" fill="greenyellow"/>
<rect id="XMLID_8" x="1703" y="483.5" width="115" height="115" fill="greenyellow"/>
<rect id="XMLID_7" x="1703" y="605" width="115" height="115" fill="greenyellow"/>
    
    
    <script type="text/ecmascript">
    <![CDATA[

      // set element onclick event handler
      window.onload=function() {
        for(let i=1; i<=60 ; i++){
         var square = document.getElementById("XMLID_"+i);
        console.log(square);
         // onclick event handler, change circle radius
         square.onclick = function() {
            console.log(this);
            var color = this.getAttribute("fill");
            if (color == "greenyellow") {
               this.setAttribute("fill", "orange");
            } else if (color == "orange") {
               this.setAttribute("fill","red");
            } else {
                this.setAttribute("fill","greenyellow");
            }
         }
      }
}
    ]]>
  </script>
</svg>
